<?xml version="1.0" encoding="UTF-8"?>
<svg version="1.1" viewBox="0 0 2048 822" width="401" height="161" xmlns="http://www.w3.org/2000/svg">
<path transform="translate(568,157)" d="m0 0h75l-1 170 9-6 11-9 14-8 16-5 8-1h15l19 3 15 4 16 8 11 7 11 11 8 13 5 14 1 7h2l2-6 8-14 8-10 11-12 13-10 16-8 13-4 19-3h19l18 3 15 5 16 9 12 9v-19l2-1 73 1v218h-73l-1-2v-21l-6 4-11 9-14 8-10 4-12 3-7 1h-28l-18-4-15-6-14-9-12-11-9-9-10-15-6-10v58h-75l-1-130-4-13-6-10-8-7-12-5h-17l-13 5-10 8-8 11-4 10-1 18v112l-2 1h-72l-2-3v-362zm351 205-14 3-8 4-10 8-8 11-5 13-1 5v17l4 14 6 10 5 6 11 7 11 4 5 1h20l11-4 12-7 9-10 6-13 2-8v-16l-2-10-7-14-8-9-9-6-10-4-10-2z" fill="#4A0432"/>
<path transform="translate(1192,298)" d="m0 0h14l21 3 16 5 16 8 10 7 6 5 10 14 6 13 3 12 3-4 7-13 8-11 9-10 10-9 14-9 14-6 18-4 9-1h17l16 2 14 4 16 8 11 8 6 5v-19l1-1h74l1 216-2 2h-73v-24l-11 9-11 8-16 8-15 4-7 1h-28l-18-4-15-6-10-6-11-9-9-8-11-14-9-16-1-1v57l-1 1h-75l-1-129-3-12-5-10-8-8-11-5-12-2-11 2-14 7-11 11-6 12-1 7-1 126-1 1h-73l-2-5v-213h76v10l-1 11 6-3 10-8 18-11 17-5zm219 64-12 3-9 4-8 6-8 9-6 12-2 8v20l4 13 6 10 9 9 14 7 9 2h18l13-4 9-5 6-5 8-11 4-10 2-10v-14l-3-12-6-11-9-10-10-6-7-3-10-2z" fill="#4A0432"/>
<path transform="translate(404,298)" d="m0 0h16l18 3 15 5 15 8 12 10 1-19 1-1 74 1v233l-2 19-5 16-8 16-9 12-10 10-10 7-16 9-16 6-22 5-16 2h-33l-27-4-20-6-16-8-13-9-14-14-12-19 1-4 54-27 3-2 4 1 10 11 11 7 9 4 13 3 11 1h11l13-3 14-7 10-9 5-9 3-8 1-5 1-17 1-7-7 4-10 6-12 5-17 4-7 1h-35l-14-3-12-4-14-7-14-10-12-12-10-14-8-16-6-17-3-18v-26l3-19 5-16 8-16 8-12 8-10 10-9 19-12 13-5 17-4zm22 64-16 4-11 7-8 8-6 10-4 14v20l4 12 7 11 5 5 9 7 8 3 9 2h18l13-4 10-6 10-10 6-12 3-13v-13l-3-12-6-12-9-10-12-7-15-4z" fill="#4A0432"/>
<path transform="translate(1671,431)" d="m0 0h10l13 3 15 8 8 8 8 16 2 10v9l-3 12-6 12-9 10-16 8-8 2h-18l-11-4-11-7-8-9-5-10-3-16 1-13 3-11 4-8 5-6 14-9 10-4z" fill="#C66524"/>
<path transform="translate(1e3 595)" d="m0 0h7l7 3 1 3 8-5 4-1h10l8 4 3 5v35l-1 1h-7l-1-2-1-25-2-9-5-2-6 2-4 4-2 12-1 18-1 2h-6l-2-7-1-23-2-6-2-1h-6l-5 5-3 9-1 22-2 2-6-1-1-4-1-17v-18l2-5 13 1z" fill="#9B6546"/>
<path transform="translate(694,580)" d="m0 0h13l9 3 2 2v6l-13-1h-10l-9 3-4 5-2 5-1 9 3 10 6 7 7 3h11l5-3v-6l-5-4-8-3-1-4 5-3 16-2 3 3 1 7v10l-2 8-6 5-5 2h-17l-8-3-8-7-6-10-2-8 1-11 5-10 6-7 10-5z" fill="#9C6748"/>
<path transform="translate(1333,595)" d="m0 0h6l2 1 1 30 2 6 10 1 5-4 2-5 1-28 1-1h5l2 2 1 39-2 10-4 6-7 4-3 1h-13l-6-2-2-5 1-2 17 1 6-3 5-7-8 3h-13l-7-8-2-6z" fill="#986446"/>
<path transform="translate(802,594)" d="m0 0h7l10 4 6 7 2 5v9l-1 2-5 1-27 1 2 5 5 4 3 1h7l12-6 3 1-3 7-6 5-7 2-10-1-7-4-7-8-2-5v-12l4-8 4-5zm0 8-5 3-3 4 1 4 22-1-1-5-5-4-2-1z" fill="#9B684B"/>
<path transform="translate(1155,594)" d="m0 0h3l1 2v40l-2 4-10-1-6 2h-11l-6-3-6-7-3-7v-12l5-10 7-6 3-1h12l10 1zm-22 8-6 4-4 6v11l6 9 5 2 7-1 5-4 2-4v-15l-6-7-2-1z" fill="#9A684B"/>
<path transform="translate(1226,594)" d="m0 0 4 1 6 3 4-1 7-2h9l6 2 3 6v36l-1 1h-6l-1-1-2-20-1-16h-10l-6 3-1 1-1 8-1 24-1 1h-6l-2-7z" fill="#986547"/>
<path transform="translate(1e3 595)" d="m0 0h7l4 1v2l-5 1v4h-8l-5 5-3 9-1 22-2 2-6-1-1-4-1-17v-18l2-5 13 1z" fill="#C86F34"/>
<path transform="translate(910,595)" d="m0 0h9l1 1v5l-14 2-2 1-2 12-2 24h-6l-2-3v-41l7 1 5 2z" fill="#966346"/>
<path transform="translate(715,607)" d="m0 0 5 1 2 9v10l-2 8-3 2-5-5-1-9-5-4-8-3-1-4 5-3z" fill="#9D694B"/>
<path transform="translate(711,629)" d="m0 0 4 5 2 4-8 4h-17l-8-3-7-6 2-1 7-1 4-1 5 2h11z" fill="#C7682A"/>
<path transform="translate(1226,594)" d="m0 0 4 1-2 2-1 36h-1z" fill="#CD7F4B"/>
<path transform="translate(915,595)" d="m0 0 5 1v5l-5-1z" fill="#5C1C41"/>
<path transform="translate(1234,625)" d="m0 0h1v14l-1 1h-5v-2l5-1z" fill="#C46324"/>
</svg>
